<svg xmlns="http://www.w3.org/2000/svg" width="96" height="118" viewBox="0 0 96 118" version="1.1">
	<path d="M 39.500 22.930 C 27.402 25.857, 16.802 36.551, 13.425 49.236 C 11.459 56.623, 11.657 61.900, 14.196 69.729 C 16.042 75.423, 17.434 77.547, 22.946 83.083 C 27.276 87.433, 31.119 90.281, 34.272 91.478 C 36.897 92.474, 39.211 93.111, 39.415 92.894 C 39.619 92.677, 43.467 84.850, 47.966 75.500 C 60.089 50.306, 60.304 49.904, 61.159 50.759 C 61.593 51.193, 62.567 53.337, 63.322 55.524 L 64.697 59.500 74.366 59.786 C 85.694 60.122, 85.943 59.900, 84.057 51.164 C 81.597 39.773, 74.993 31.118, 64.799 25.925 L 59.099 23.021 57.549 25.233 C 56.697 26.450, 56 27.749, 56 28.120 C 56 28.491, 53.477 34.128, 50.392 40.647 C 36.647 69.700, 35 73.269, 35 73.990 C 35 74.411, 34.374 75.275, 33.609 75.909 C 32.499 76.830, 31.578 76.255, 29.047 73.060 C 22.049 64.224, 22.137 51.846, 29.264 42.720 C 30.887 40.641, 33.630 38.208, 35.358 37.314 C 39.298 35.276, 48.064 32.921, 49.170 33.605 C 49.626 33.887, 50 31.391, 50 28.059 L 50 22 46.250 22.102 C 44.188 22.159, 41.150 22.531, 39.500 22.930 M 65.500 69.605 C 61.730 76.639, 57.214 80.665, 51.474 82.111 L 47 83.237 47 88.761 L 47 94.285 53.174 93.640 C 57.333 93.205, 61.136 91.985, 64.825 89.903 L 70.302 86.812 72.724 89.906 C 74.981 92.791, 75.578 93, 81.551 93 L 87.957 93 83.433 85.549 L 78.910 78.098 80.833 74.299 C 81.890 72.209, 83.072 69.037, 83.457 67.250 L 84.159 64 76.329 64.003 L 68.500 64.007 65.500 69.605" stroke="none" fill="#000000" fill-rule="evenodd"/>
</svg>